<?xml version="1.0"?>
<svg xmlns="http://www.w3.org/2000/svg" xmlns:xlink="http://www.w3.org/1999/xlink" version="1.1" id="Capa_1" x="0px" y="0px" viewBox="0 0 512 512" style="enable-background:new 0 0 512 512;" xml:space="preserve" width="512px" height="512px" class=""><g><path style="fill:#FFFFFF" d="M256,0C115.3,0,0,115.3,0,256s115.3,256,256,256s256-115.3,256-256S396.7,0,256,0z" data-original="#32D736" class="active-path" data-old_color="#32D736"/><path style="fill:#FFFFFF" d="M512,256c0,140.7-115.3,256-256,256S0,396.7,0,256H512z" data-original="#10BB67" class="" data-old_color="#10BB67"/><path style="fill:#000000" d="M384.401,243.401l-180-120C194.2,116.8,181,123.999,181,136v240c0,12.001,13.5,19.2,23.401,12.599  l180-120C388.599,265.6,391,260.799,391,256S388.599,246.4,384.401,243.401z" data-original="#E1E4FB" class="" data-old_color="#E1E4FB"/><path style="fill:#000000" d="M391,256c0,4.799-2.401,9.6-6.599,12.599l-180,120C194.5,395.2,181,388.001,181,376V256H391z" data-original="#C5C9F7" class="" data-old_color="#C5C9F7"/></g> </svg>
